<svg width="741" height="682" viewBox="0 0 741 682" fill="none" xmlns="http://www.w3.org/2000/svg">
<path fill-rule="evenodd" clip-rule="evenodd" d="M534.37 6.14036C536.861 3.83893 539.911 2.04893 543.397 0.998272C545.893 0.247805 548.419 -0.0662782 550.891 0.011548C553.362 0.0893742 555.864 0.561891 558.305 1.46801C561.716 2.73547 564.644 4.71309 566.979 7.16739C569.321 9.61614 571.142 12.6152 572.209 16.0437C572.974 18.4967 573.293 20.9802 573.212 23.4108L573.211 23.4775L573.207 23.5943C578.062 25.5135 583.548 27.6913 589.387 30.0247C610.077 38.2937 635.204 48.4764 652.733 55.6003C655.673 51.2948 660.118 47.9539 665.584 46.4307C677.834 43.0189 690.597 50.026 694.067 62.0696C696.835 71.67 692.865 81.5915 684.936 86.9503C687.032 94.6815 689.572 104.094 692.311 114.351C701.752 149.694 713.626 195.008 719.038 215.71C719.295 215.732 719.551 215.761 719.806 215.8C721.903 216.108 723.836 216.927 725.464 218.124L725.491 218.143C727.119 219.341 728.465 220.932 729.358 222.824C729.871 223.904 730.232 225.068 730.41 226.29C730.522 227.054 730.561 227.814 730.529 228.566C730.534 228.714 730.537 228.862 730.537 229.011C730.537 234.348 727.101 238.9 722.288 240.646C722.736 273.749 724.026 370.852 724.81 445.133C725.115 474.016 725.33 499.447 725.461 516.316C726.102 516.533 726.728 516.777 727.34 517.047L727.359 517.055L727.417 517.082C729.316 517.921 731.057 518.997 732.614 520.263L732.656 520.298C733.811 521.237 734.881 522.295 735.843 523.465L735.865 523.49L735.906 523.54C736.957 524.824 737.878 526.236 738.637 527.762C739.418 529.323 740.023 530.986 740.425 532.725L740.436 532.775L740.44 532.796C740.652 533.72 740.802 534.65 740.893 535.578L740.898 535.642L740.908 535.745L740.921 535.882L740.932 536.021L740.942 536.16L740.952 536.299L740.96 536.437L740.969 536.577L740.975 536.716L740.982 536.855L740.986 536.994L740.992 537.135L740.994 537.273L740.997 537.414L740.999 537.547L741 537.686V537.825L740.999 537.964L740.997 538.103L740.994 538.242L740.99 538.38L740.986 538.519L740.98 538.658L740.975 538.795L740.967 538.934L740.96 539.072L740.951 539.209L740.942 539.347L740.931 539.485L740.919 539.622L740.908 539.76L740.904 539.807L740.895 539.897L740.89 539.949L740.881 540.035L740.876 540.091L740.867 540.171L740.86 540.232L740.852 540.309L740.843 540.373L740.835 540.445L740.826 540.514L740.818 540.581L740.806 540.666C740.515 542.898 739.893 545.03 738.99 547.011L738.982 547.03L738.956 547.087C738.101 548.954 737.007 550.665 735.719 552.197L735.684 552.237C734.728 553.372 733.652 554.424 732.464 555.372L732.437 555.393L732.386 555.433C731.08 556.467 729.644 557.371 728.093 558.118C726.504 558.887 724.812 559.482 723.045 559.875L722.995 559.886L722.972 559.892C722.032 560.099 721.086 560.248 720.143 560.336L720.078 560.342L719.974 560.352L719.833 560.363L719.693 560.374L719.551 560.385L719.41 560.395L719.269 560.403L719.127 560.41L718.986 560.417L718.843 560.423L718.702 560.428L718.56 560.432L718.418 560.437L718.275 560.438L718.141 560.441H717.998H717.856L717.715 560.439L717.575 560.438L717.434 560.435L717.292 560.432L717.151 560.428L717.011 560.423L716.87 560.417L716.73 560.41L716.589 560.402L716.449 560.393L716.309 560.384L716.169 560.374L716.029 560.363L715.889 560.352L715.841 560.346L715.749 560.338L715.698 560.334L715.61 560.325L715.554 560.318L715.47 560.31L715.41 560.303L715.332 560.295L715.266 560.288L715.192 560.28L715.121 560.271L715.053 560.263L714.967 560.252C712.697 559.965 710.53 559.354 708.513 558.466L708.495 558.458L708.437 558.431C706.538 557.592 704.797 556.516 703.241 555.25L703.198 555.215C702.572 554.707 701.971 554.162 701.4 553.585C692.033 557.824 679.99 563.258 666.691 569.221C630.606 585.401 585.316 605.51 559.539 616.94C559.993 618.567 560.266 620.257 560.337 621.985L560.339 622.076V622.085C560.369 622.867 560.358 623.644 560.305 624.415L560.298 624.515L560.296 624.556L560.289 624.654L560.286 624.695L560.277 624.795C560.154 626.254 559.884 627.717 559.46 629.165C559.073 630.497 558.57 631.773 557.961 632.982L557.943 633.014L557.89 633.118L557.88 633.139L557.853 633.19L557.826 633.243L557.761 633.367L557.744 633.399C557.385 634.075 556.989 634.74 556.555 635.386L556.53 635.423L556.52 635.437C555.334 637.202 553.921 638.766 552.336 640.104C551.266 641.012 550.104 641.827 548.862 642.536L548.758 642.595L548.733 642.609L548.634 642.664L548.628 642.667C547.284 643.413 545.879 644.018 544.437 644.478C542.457 645.116 540.372 645.495 538.231 645.58L538.137 645.583H538.127C537.333 645.612 536.543 645.601 535.758 645.549L535.655 645.542L535.614 645.539L535.515 645.533L535.473 645.53L535.371 645.521C533.887 645.401 532.4 645.135 530.927 644.718C529.571 644.337 528.275 643.841 527.045 643.244L527.011 643.227L526.905 643.174L526.886 643.164L526.832 643.138L526.778 643.112L526.652 643.048L526.62 643.031C525.932 642.678 525.257 642.289 524.599 641.862L524.56 641.837L524.546 641.827C522.751 640.661 521.161 639.272 519.801 637.714C519.104 636.919 518.46 636.074 517.876 635.182C508.038 637.45 495.452 640.339 481.578 643.487C438.234 653.325 382.352 665.772 358.592 671.053C358.516 671.695 358.387 672.326 358.21 672.941C357.624 675.011 356.525 676.82 355.084 678.267C353.645 679.716 351.83 680.836 349.739 681.46C348.627 681.794 347.459 681.98 346.266 681.998H346.231H346.187L346.152 682C344.959 682.008 343.787 681.848 342.667 681.538C340.563 680.961 338.722 679.882 337.251 678.464C335.776 677.049 334.637 675.265 334.002 673.209C333.802 672.565 333.655 671.902 333.563 671.225C318.882 668.173 291.498 662.479 258.829 655.668C258.191 657.04 257.418 658.338 256.527 659.547L256.481 659.609C254.295 662.564 251.372 665.024 247.868 666.683C245.874 667.632 243.719 668.308 241.456 668.659C239.193 669.014 236.932 669.029 234.738 668.733C230.882 668.223 227.328 666.775 224.32 664.632L224.255 664.586C221.25 662.439 218.75 659.565 217.062 656.12C216.096 654.159 215.409 652.041 215.052 649.814C214.871 648.698 214.776 647.581 214.766 646.471C182.599 639.75 148.72 632.654 118.462 626.279C87.5099 619.76 60.352 613.982 42.6943 610.215C41.5366 612.055 40.1259 613.703 38.5188 615.123L38.4919 615.147C35.7341 617.59 32.3572 619.4 28.5746 620.31C26.4162 620.834 24.1574 621.055 21.8632 620.934C19.5691 620.817 17.3471 620.365 15.2565 619.622C11.5912 618.329 8.4249 616.182 5.94135 613.468L5.91874 613.443C3.43377 610.732 1.59194 607.41 0.667498 603.693C0.134601 601.569 -0.0901341 599.35 0.0328421 597.094C0.151578 594.837 0.610962 592.652 1.36578 590.597C2.68177 586.995 4.86567 583.882 7.62486 581.44L7.65171 581.418C10.4095 578.973 13.7878 577.164 17.569 576.255C19.661 575.747 21.8434 575.524 24.0641 575.62C29.7224 551.488 39.0898 511.656 46.7553 479.646C49.4071 468.572 51.861 458.44 53.8625 450.215L53.7452 450.139L53.6872 450.101L53.6279 450.062L53.5982 450.044C52.7317 449.474 51.9119 448.85 51.1429 448.181L51.1175 448.157L51.092 448.136C49.9711 447.156 48.9647 446.082 48.0756 444.933C46.3807 442.748 45.0648 440.224 44.2548 437.432C43.6724 435.442 43.3629 433.359 43.36 431.238V431.224V431.162V431.084V431.023L43.3615 430.943V430.884L43.3629 430.803L43.3643 430.745V430.716L43.3657 430.664L43.3671 430.606L43.3685 430.572L43.3699 430.524L43.3714 430.467L43.3728 430.431L43.3742 430.385L43.377 430.328L43.3784 430.288L43.3798 430.244L43.3827 430.187L43.3841 430.146L43.3855 430.105L43.3883 430.048L43.3911 430.003L43.394 429.967L43.3968 429.91L43.3996 429.859L43.401 429.828L43.4053 429.769L43.4081 429.718L43.4138 429.63L43.4208 429.55L43.4251 429.49L43.4307 429.411L43.4364 429.351L43.442 429.273L43.4477 429.21L43.4548 429.134L43.4604 429.072L43.4746 428.931L43.4901 428.792L43.5057 428.652L43.5212 428.511L43.5396 428.372L43.5579 428.232L43.5763 428.093L43.582 428.058C43.8406 426.227 44.3297 424.409 45.0633 422.642C45.6471 421.229 46.3652 419.898 47.1992 418.662L47.2388 418.603L47.2586 418.575C47.8381 417.723 48.4713 416.917 49.1541 416.161L49.1767 416.134L49.1993 416.111C50.1944 415.009 51.2871 414.018 52.456 413.145C52.9197 412.796 53.3989 412.464 53.8936 412.15C52.7275 407.308 51.4242 401.859 50.0517 396.058C45.0365 374.856 39.0559 348.991 34.9341 331.081C32.8095 331.162 30.637 330.952 28.47 330.423C16.1159 327.4 8.5804 315.085 11.6548 302.937C13.8981 294.072 21.1749 287.731 29.7479 286.127C29.697 270.655 29.656 249.738 29.721 232.363C29.7351 228.497 29.7563 224.808 29.7804 221.398C28.6255 220.982 27.5145 220.479 26.4558 219.897L26.3936 219.864C23.8068 218.438 21.4689 216.503 19.5479 214.093C18.1952 212.401 17.0756 210.505 16.2473 208.445C15.9547 207.721 15.7017 206.988 15.4911 206.248C15.067 204.772 14.7914 203.235 14.6811 201.656C14.5214 199.402 14.7066 197.188 15.1971 195.069C15.6904 192.925 16.4904 190.9 17.5506 189.039L17.5845 188.978C19.0348 186.434 21.0024 184.134 23.4535 182.247C25.1751 180.916 27.1032 179.815 29.198 179.001C29.9344 178.713 30.6808 178.466 31.4328 178.257C32.9339 177.84 34.4973 177.571 36.103 177.462C38.3958 177.304 40.6475 177.486 42.8031 177.969C44.9842 178.453 47.0437 179.241 48.9364 180.282L48.9986 180.317C51.5853 181.743 53.9247 183.677 55.8443 186.087C56.6528 187.097 57.3765 188.18 58.0055 189.325C64.2024 188.388 71.393 187.311 79.1207 186.172C109.544 181.687 148.271 176.186 167.323 173.493C167.406 173.089 167.508 172.69 167.631 172.298C167.939 171.3 168.37 170.363 168.902 169.5L168.93 169.454C169.247 168.944 169.604 168.452 170 167.985L170.038 167.941C170.676 167.195 171.411 166.514 172.238 165.92C172.961 165.396 173.747 164.946 174.587 164.582L174.649 164.556C175.114 164.355 175.589 164.185 176.071 164.043L176.126 164.027C176.615 163.884 177.109 163.773 177.603 163.693L177.667 163.681C178.344 163.573 179.037 163.519 179.738 163.522C180.992 163.526 182.216 163.713 183.376 164.064C184.393 164.367 185.345 164.79 186.223 165.313L186.297 165.357L186.323 165.374C205.586 150.147 251.297 114.039 286.876 86.1679C298.389 77.147 308.843 68.9975 316.974 62.6741L316.958 62.6324L316.943 62.5838L316.913 62.499L316.897 62.4518L316.869 62.3656L316.851 62.3114C316.591 61.5193 316.379 60.7201 316.212 59.9169L316.201 59.8627L316.195 59.839C315.836 58.088 315.683 56.2771 315.762 54.4329C315.853 52.1773 316.285 49.9954 317.009 47.9414C317.516 46.496 318.165 45.1243 318.937 43.8388L318.991 43.7499C319.505 42.8993 320.079 42.078 320.714 41.29L320.72 41.2831L320.789 41.1969C322.153 39.5167 323.781 38.0046 325.661 36.7247C325.965 36.5176 326.272 36.3175 326.583 36.1257L326.59 36.1215C326.625 36.1007 326.659 36.0784 326.694 36.0576L326.716 36.0451L326.825 35.9798L326.925 35.92C327.499 35.5795 328.091 35.2626 328.697 34.9708L328.794 34.9249L328.921 34.8652L329.048 34.8054L329.175 34.747L329.304 34.6901L329.432 34.6331L329.478 34.6136L329.563 34.5775L329.609 34.5567L329.691 34.5219L329.739 34.5011L329.767 34.4899L329.821 34.4677L329.871 34.4469L329.9 34.4344L329.953 34.4135L330.002 34.3927L330.035 34.3801L330.083 34.3607L330.134 34.3398L330.168 34.326L330.214 34.3079L330.266 34.287L330.302 34.2731L330.346 34.2565L330.398 34.2356L330.436 34.2217L330.478 34.205L330.531 34.1856L330.57 34.1703L330.611 34.155L330.664 34.1356L330.706 34.1203L330.744 34.1064L330.797 34.0869L330.84 34.0702L330.877 34.0577L330.929 34.0397L330.976 34.0216L331.011 34.0105L331.062 33.9924L331.113 33.9743L331.144 33.9632L331.197 33.9452L331.249 33.9271L331.329 33.9007L331.386 33.8812L331.464 33.8548L331.55 33.827L331.598 33.8117L331.686 33.7839L331.741 33.7659C332.546 33.5102 333.359 33.3017 334.176 33.1363L334.231 33.1252L334.255 33.121C336.036 32.768 337.878 32.6179 339.754 32.6958C342.048 32.7847 344.267 33.2086 346.357 33.9215C347.827 34.4205 349.222 35.0583 350.529 35.8172L350.62 35.87C351.485 36.3758 352.32 36.9401 353.122 37.5627L353.129 37.5696L353.216 37.6377C354.925 38.9788 356.463 40.5798 357.765 42.4268C357.976 42.7256 358.179 43.0286 358.374 43.3343L358.379 43.3413C358.4 43.376 358.422 43.4094 358.444 43.4441L358.456 43.465L358.523 43.572L358.583 43.6707C358.93 44.2349 359.252 44.8158 359.549 45.4134L359.596 45.5079L359.656 45.633L359.717 45.7581L359.777 45.8831L359.834 46.0096L359.892 46.1361L359.912 46.1805L359.949 46.2639L359.97 46.3084L360.005 46.3904L360.027 46.4376L360.038 46.4654L360.061 46.5182L360.082 46.5669L360.1 46.6114C365.722 46.3126 372.142 45.9804 379.006 45.6427C407.674 44.2307 444.055 42.6395 462.424 41.8487C462.561 41.4054 462.723 40.9731 462.91 40.5507C463.532 39.1303 464.432 37.8087 465.601 36.6705C466.455 35.8338 467.44 35.1112 468.537 34.5344L468.584 34.5108C468.907 34.3412 469.237 34.1884 469.569 34.0494L469.599 34.0369L469.671 34.0077L469.743 33.9785L469.815 33.9493L469.887 33.9215L469.931 33.9049L470.003 33.8771L470.075 33.8507L470.106 33.8395C470.765 33.5991 471.452 33.4115 472.16 33.2822C473.402 33.0515 474.648 33.0112 475.858 33.1419C477.13 33.2781 478.351 33.6019 479.488 34.0855C480.932 34.697 482.278 35.5823 483.435 36.7316C483.711 37.004 483.974 37.2889 484.224 37.5877C495.004 33.7367 511.777 27.7747 525.437 23.0495C525.991 22.8577 526.539 22.6687 527.081 22.4825C527.082 22.3074 527.086 22.1336 527.092 21.9585C527.17 19.5279 527.65 17.0694 528.573 14.6693C529.863 11.3158 531.874 8.43623 534.37 6.14036ZM377.762 606.09C358.34 612.872 317.179 627.22 284.887 638.299C276.755 641.088 269.185 643.666 262.675 645.874C294.5 653.296 321.1 659.512 335.471 662.872C335.933 662.169 336.463 661.52 337.051 660.931C338.489 659.481 340.304 658.361 342.396 657.737C343.507 657.404 344.674 657.218 345.867 657.2H345.904H345.947L345.982 657.198C347.176 657.19 348.347 657.35 349.466 657.659C351.571 658.236 353.411 659.316 354.883 660.734C355.458 661.287 355.983 661.894 356.446 662.553C379.957 656.293 435.271 641.593 478.261 630.352C486.469 628.206 494.228 626.189 501.225 624.376C486.142 621.765 467.155 618.464 446.314 614.809C430.72 612.074 414.088 609.145 397.286 606.177C397.011 606.504 396.717 606.82 396.404 607.121C395.54 607.959 394.543 608.682 393.434 609.256C392.324 609.83 391.154 610.229 389.962 610.454C387.874 610.854 385.778 610.718 383.84 610.127L383.803 610.116C381.866 609.524 380.059 608.469 378.569 606.977C378.288 606.696 378.018 606.4 377.762 606.09ZM226.622 579.322C200.811 582.778 137.394 591.243 88.2987 597.614C80.6063 598.612 73.2673 599.557 66.4754 600.425C82.0029 603.98 100.904 608.322 121.478 613.075C151.698 620.054 185.526 627.909 217.598 635.373C218.064 634.537 218.581 633.734 219.147 632.966L219.193 632.904C221.379 629.949 224.302 627.489 227.806 625.83C228.815 625.351 229.864 624.941 230.948 624.607L230.954 624.475C231.536 611.507 232.396 595.615 232.982 585.095C232.117 584.741 231.307 584.296 230.56 583.776C229.365 582.949 228.304 581.907 227.441 580.669C227.14 580.239 226.866 579.79 226.622 579.322ZM248.787 579.804C248.586 580.149 248.368 580.482 248.137 580.805C247.296 581.978 246.236 583.021 244.976 583.871C244.266 584.351 243.502 584.763 242.692 585.095C243.278 595.621 244.138 611.509 244.72 624.475L244.726 624.607C247.127 625.345 249.361 626.461 251.354 627.881L251.419 627.927C253.279 629.257 254.947 630.866 256.348 632.716C263.319 630.609 271.624 628.112 280.621 625.43C308.661 617.072 343.398 606.881 365.203 600.503C315.832 591.757 269.639 583.524 248.787 579.804ZM334.091 515.689C333.838 516.109 333.573 516.523 333.291 516.929C335.863 520.392 338.698 524.225 341.686 528.282C356.22 548.015 374.397 573.021 384.079 586.364C384.435 586.262 384.796 586.178 385.159 586.109C387.245 585.709 389.342 585.845 391.28 586.436L391.318 586.449C393.254 587.041 395.062 588.095 396.551 589.587C397.403 590.437 398.139 591.417 398.722 592.508C398.971 592.972 399.187 593.446 399.371 593.93C416.24 596.502 432.935 599.055 448.585 601.461C475.37 605.577 499.089 609.271 515.436 611.828C512.495 608.867 509.283 605.624 505.91 602.204C491.358 587.451 473.774 569.439 461.393 556.73C459.351 558.049 457.063 559.065 454.588 559.699C452.482 560.243 450.279 560.499 448.039 560.43C447.025 560.4 446.022 560.303 445.037 560.145L444.992 560.138L444.968 560.134C443.348 559.871 441.738 559.432 440.169 558.812C438.029 557.971 436.073 556.836 434.338 555.47C432.672 554.162 431.229 552.655 430.023 551.006L429.99 550.96L429.983 550.95C428.382 548.754 427.16 546.244 426.431 543.498C426.095 542.24 425.867 540.948 425.755 539.635C411.134 535.849 390.072 530.378 366.338 524.158C355.993 521.447 345.141 518.597 334.091 515.689ZM597.514 511.43C597.259 511.777 596.988 512.108 596.701 512.423L596.67 512.457C596.388 512.765 596.093 513.056 595.785 513.331L595.754 513.359C594.694 514.304 593.451 515.083 592.05 515.645C590.784 516.151 589.482 516.441 588.189 516.531L588.132 516.534L588.05 516.54C587.711 516.559 587.37 516.566 587.028 516.559C580.737 532.939 568.476 564.785 558.646 589.877C556.397 595.618 554.274 601.002 552.387 605.765C553.244 606.494 554.038 607.281 554.767 608.116C554.951 608.326 555.132 608.54 555.31 608.758C580.543 596.324 625.141 574.377 660.777 557C673.87 550.615 685.755 544.855 695.01 540.382C694.991 540.234 694.976 540.084 694.962 539.935L694.955 539.871L694.946 539.768L694.933 539.631L694.922 539.492L694.912 539.353L694.905 539.25C689.565 537.763 683.485 536.059 676.996 534.224C649.658 526.497 615.043 516.504 597.514 511.43ZM530.395 408.286C520.208 426.463 510.017 444.637 499.807 462.801C488.993 482.038 478.16 501.265 467.31 520.481L466.038 522.735C466.55 523.305 467.029 523.897 467.475 524.507L467.508 524.553L467.515 524.563C469.117 526.759 470.338 529.269 471.067 532.015C471.621 534.087 471.88 536.252 471.811 538.455C471.78 539.451 471.682 540.438 471.521 541.407L471.514 541.45L471.51 541.473C471.241 543.067 470.796 544.649 470.164 546.193C469.652 547.452 469.033 548.647 468.321 549.77C481.515 561.66 500.215 578.549 515.536 592.53C519.542 596.185 523.315 599.644 526.701 602.757C527.81 602.194 528.958 601.725 530.13 601.351C532.11 600.713 534.196 600.335 536.338 600.25L536.431 600.246H536.441C537.235 600.217 538.026 600.228 538.81 600.279L538.912 600.286L538.932 600.288C541.024 595.604 543.391 590.322 545.929 584.7C557.016 560.121 571.242 529.074 578.57 513.115C578.362 512.919 578.161 512.718 577.969 512.51L577.941 512.479C576.979 511.435 576.185 510.214 575.615 508.836C575.099 507.591 574.805 506.313 574.714 505.04L574.709 504.985L574.705 504.903C574.682 504.538 574.677 504.17 574.688 503.799C574.701 503.33 574.742 502.859 574.812 502.388L574.818 502.343C574.954 501.446 575.191 500.552 575.536 499.679C575.921 498.7 576.424 497.791 577.025 496.964C577.295 496.591 577.583 496.236 577.89 495.899L577.921 495.866C578.147 495.617 578.383 495.379 578.628 495.153C571.318 478.958 557.036 447.252 545.913 422.169C543.325 416.333 540.911 410.856 538.789 406.02C536.481 406.168 534.188 405.97 531.981 405.454L530.395 408.286ZM200.497 480.37C199.743 481.92 198.803 483.398 197.68 484.77C197.35 485.174 197.007 485.568 196.646 485.951C198.644 489.697 200.842 493.834 203.154 498.209C214.496 519.672 228.629 546.825 236.175 561.357C236.817 561.273 237.472 561.237 238.133 561.254H238.167C239.052 561.276 239.919 561.388 240.755 561.586L240.791 561.593C241.37 561.73 241.934 561.907 242.48 562.12C243.424 562.486 244.306 562.96 245.115 563.522C246.309 564.35 247.371 565.392 248.233 566.631C248.821 567.47 249.309 568.387 249.675 569.368L249.686 569.4C249.822 569.766 249.94 570.138 250.041 570.518L250.055 570.569C250.121 570.824 250.179 571.079 250.229 571.335C272.336 574.666 322.804 582.281 375.434 590.284C364.582 577.294 345.723 554.68 330.758 536.513C327.553 532.619 324.528 528.931 321.795 525.589C312.653 528.711 302.113 525.918 295.908 517.955C292.746 513.896 291.195 509.118 291.156 504.37C255.259 494.892 221.492 485.94 200.497 480.37ZM167.631 489.905C159.434 496.42 148.831 504.83 137.099 514.09C105.562 538.98 65.9128 570.044 43.442 587.63C43.5989 587.92 43.7502 588.214 43.8958 588.512C55.2124 587.346 70.142 585.822 86.7042 584.171C135.972 579.258 199.669 573.146 225.595 570.667C225.731 570.125 225.903 569.596 226.11 569.085C226.483 568.157 226.965 567.288 227.537 566.494C227.718 566.242 227.909 565.994 228.111 565.754C219.571 551.764 203.628 525.598 191.117 504.773C188.565 500.527 186.161 496.504 183.987 492.854C181.127 493.387 178.223 493.371 175.427 492.851C172.696 492.348 170.05 491.362 167.631 489.905ZM84.673 445.083C84.3634 445.475 84.0426 445.856 83.7104 446.224L83.6878 446.25L83.6652 446.274C82.6686 447.376 81.5774 448.367 80.4084 449.24C78.185 450.907 75.618 452.2 72.7782 452.997C71.294 453.417 69.759 453.692 68.1956 453.81C65.9453 461.973 63.162 472.023 60.0933 482.993C51.2235 514.7 40.0369 554.076 33.2435 577.921C34.7701 578.658 36.1893 579.548 37.4855 580.571C59.2198 562.11 97.601 529.542 128.311 503.672C139.737 494.048 150.102 485.359 158.131 478.644C157.968 478.221 157.818 477.796 157.683 477.37C156.673 474.222 156.399 470.959 156.799 467.796C140.284 462.659 117.161 455.439 98.1156 449.384C93.3167 447.858 88.7793 446.405 84.673 445.083ZM655.697 391.7C652.286 397.823 648.233 405.076 643.833 412.907C627.609 441.778 606.72 478.513 596.773 495.98C597.678 496.992 598.428 498.169 598.974 499.486C599.418 500.555 599.698 501.65 599.825 502.744C617.645 506.76 652.798 514.709 680.479 521.132C687.052 522.656 693.2 524.097 698.597 525.372C699.072 524.655 699.587 523.969 700.135 523.316L700.169 523.276C701.126 522.141 702.202 521.088 703.391 520.141L703.416 520.12L703.467 520.079C703.594 519.979 703.721 519.881 703.851 519.782C701.06 511.364 697.602 500.888 693.844 489.409C683.166 456.789 670.027 416.108 662.196 391.812C660.254 392.051 658.326 392.042 656.45 391.805C656.199 391.775 655.947 391.739 655.697 391.7ZM416.955 438.49C401.142 438.626 372.351 438.846 349.455 438.875C345.202 438.88 341.152 438.876 337.427 438.868C337.333 439.126 337.234 439.382 337.131 439.635L337.105 439.699L337.097 439.72C336.445 441.299 335.605 442.822 334.575 444.257L334.52 444.335C333.826 445.295 333.065 446.19 332.25 447.016L332.187 447.079L332.087 447.177L332.047 447.218L331.987 447.276L331.947 447.316L331.92 447.341L331.886 447.375L331.845 447.413L331.811 447.445L331.785 447.472L331.744 447.511L331.683 447.569L331.642 447.607L331.539 447.703L331.474 447.764C331.038 448.163 330.587 448.546 330.118 448.914C329.479 449.416 328.811 449.887 328.114 450.324L328.039 450.371L327.984 450.406L327.919 450.445L327.862 450.479L327.787 450.525C326.812 451.113 325.801 451.624 324.764 452.058L324.723 452.076C323.496 452.589 322.215 453 320.892 453.299L320.862 453.306L320.806 453.319L320.751 453.331L320.72 453.337C319.706 453.559 318.685 453.71 317.665 453.795C316.21 453.918 314.763 453.901 313.342 453.755C312.151 453.635 310.962 453.423 309.785 453.114C308.876 452.877 307.988 452.586 307.129 452.247L307.064 452.221L307.042 452.212C305.437 451.573 303.887 450.747 302.429 449.734L302.349 449.679C301.371 448.996 300.461 448.25 299.623 447.447L299.559 447.386L299.457 447.287L299.418 447.248L299.357 447.188L299.317 447.149L299.291 447.123L299.258 447.09L299.218 447.051L299.185 447.016L299.159 446.99L299.12 446.951L299.06 446.889L299.021 446.849L298.923 446.748L298.862 446.684C298.457 446.257 298.065 445.812 297.69 445.351C297.379 444.967 297.08 444.574 296.791 444.17C290.921 445.75 284.138 447.565 276.852 449.495C252.502 455.951 222.594 463.731 202.699 468.888C202.77 469.83 202.78 470.774 202.73 471.711C223.885 476.666 257.906 484.645 294.046 493.156C295.538 490.508 297.594 488.114 300.191 486.157C310.298 478.545 324.789 480.431 332.532 490.368C335.562 494.255 337.112 498.802 337.272 503.352C348.399 505.983 359.32 508.57 369.726 511.041C393.603 516.711 414.768 521.785 429.455 525.318C429.855 524.72 430.28 524.142 430.734 523.587C432.062 521.949 433.595 520.53 435.274 519.346L435.319 519.312L435.329 519.305C435.981 518.847 436.658 518.42 437.362 518.028C435.397 507.135 432.83 492.806 430.021 476.914C428.277 467.035 426.435 456.557 424.576 445.935C423.741 445.642 422.945 445.265 422.203 444.815L422.166 444.792C420.306 443.661 418.843 442.121 417.833 440.359C417.489 439.764 417.195 439.14 416.955 438.49ZM609.339 244.889C597.634 250.232 581.613 257.529 563.695 265.641C556.112 269.073 548.189 272.655 540.118 276.297C540.918 281.189 540.102 286.372 537.436 291.02C532.455 299.705 522.507 303.923 513.059 302.17C508.552 309.772 502.942 319.206 496.778 329.515C476.451 363.507 450.16 407.031 438.498 426.316C438.984 426.891 439.414 427.504 439.783 428.147C440.799 429.908 441.389 431.933 441.417 434.083V434.126C441.431 435.274 441.283 436.432 440.962 437.566C440.643 438.701 440.163 439.768 439.55 440.745L439.527 440.782C438.847 441.863 438.023 442.806 437.092 443.604C439.312 454.158 441.496 464.574 443.547 474.394C446.845 490.196 449.785 504.456 452.009 515.3C452.16 515.321 452.311 515.343 452.461 515.368L452.506 515.375L452.53 515.379L452.625 515.395C452.672 515.403 452.717 515.41 452.763 515.418L452.875 515.438C462.612 498.718 478.095 472.166 495.874 441.809C503.835 428.218 512.253 413.863 520.816 399.271C518.769 397.223 517.087 394.757 515.918 391.936C511.118 380.343 516.793 367.098 528.586 362.377C533.358 360.468 538.404 360.244 543.042 361.425C570.452 314.778 596.504 270.528 610.811 246.24L610.748 246.187L610.723 246.165C610.247 245.76 609.784 245.335 609.339 244.889ZM705.933 232.851C692.701 233.562 671.008 234.703 653.523 235.493C651.575 235.58 649.68 235.664 647.852 235.742L647.836 235.792L647.826 235.821L647.807 235.885L647.763 236.018L647.719 236.15L647.674 236.282L647.66 236.324C647.4 237.07 647.103 237.8 646.769 238.51C646.273 239.57 645.699 240.579 645.057 241.533C644.516 242.337 643.919 243.111 643.265 243.852C642.434 244.8 641.516 245.685 640.519 246.495C639.48 247.34 638.356 248.102 637.154 248.768C636.672 249.035 636.185 249.283 635.691 249.514C641.126 269.721 649.391 300.555 655.997 325.667C658.026 333.383 659.895 340.558 661.49 346.715C661.751 346.738 662.011 346.768 662.268 346.799C664.93 347.13 667.576 347.927 670.088 349.225C673.097 350.78 675.613 352.896 677.571 355.378L677.628 355.449C679.581 357.934 681.037 360.86 681.815 364.113C682.465 366.829 682.586 369.547 682.247 372.162C681.911 374.779 681.101 377.381 679.78 379.851C678.199 382.809 676.046 385.283 673.521 387.208L673.449 387.264C672.713 387.824 671.94 388.341 671.131 388.812C680.066 412.734 695.004 452.81 706.869 485.031C708.141 488.486 709.378 491.851 710.567 495.093C710.69 480.758 710.848 463.656 711.045 445.133C711.828 370.852 713.118 273.749 713.565 240.646C709.961 239.338 707.129 236.457 705.933 232.851ZM618.591 250.554C604.86 275.149 579.833 319.965 553.417 367.169C555.615 369.28 557.418 371.858 558.649 374.832C562.489 384.107 559.626 394.439 552.288 400.616C554.205 405.535 556.369 411.112 558.662 417.065C568.52 442.655 580.824 475.154 587.097 491.762C587.285 491.759 587.475 491.76 587.663 491.766C588.032 491.776 588.401 491.802 588.77 491.845C597.757 473.883 616.671 436.127 631.647 406.613C635.71 398.607 639.485 391.21 642.678 384.975C642.136 384.416 641.625 383.832 641.148 383.226L641.091 383.155C639.138 380.671 637.682 377.745 636.903 374.492C636.254 371.776 636.131 369.058 636.472 366.442C636.808 363.825 637.618 361.224 638.938 358.754C640.519 355.795 642.673 353.322 645.196 351.397L645.269 351.341C645.893 350.867 646.542 350.424 647.217 350.013C645.855 343.803 644.276 336.561 642.596 328.763C637.132 303.388 630.56 272.163 626.27 251.692C625.096 251.714 623.91 251.647 622.72 251.489C621.863 251.375 621.02 251.215 620.198 251.012L620.153 251.001L620.014 250.966L619.877 250.93L619.781 250.905L619.74 250.894L619.67 250.876L619.603 250.856L619.54 250.84L619.466 250.819L619.41 250.804L619.37 250.791L619.33 250.78L619.28 250.766L619.234 250.752L619.193 250.74L619.15 250.727L619.097 250.712L619.057 250.699L619.022 250.688L618.962 250.67L618.923 250.659L618.893 250.649L618.827 250.629L618.691 250.587L618.591 250.554ZM133.659 340.079C133.202 340.472 132.72 340.829 132.217 341.149C131.384 341.681 130.505 342.106 129.6 342.425L129.54 342.445C128.862 342.68 128.173 342.854 127.479 342.971C126.482 343.14 125.456 343.192 124.418 343.115C124.107 343.093 123.796 343.058 123.485 343.014C115.806 357.228 101.531 383.59 90.0698 404.44C87.7898 408.587 85.6201 412.514 83.6411 416.083C84.044 416.525 84.4256 416.982 84.7889 417.452C86.4837 419.636 87.7983 422.162 88.6097 424.952C89.192 426.942 89.5016 429.026 89.5044 431.146V431.16V431.223V431.301V431.362L89.503 431.441V431.501L89.5016 431.581L89.5002 431.64V431.662C93.5386 433.171 97.9968 434.846 102.704 436.625C121.388 443.686 143.989 452.361 160.11 458.57C160.592 457.809 161.123 457.071 161.703 456.362C163.096 454.654 164.76 453.124 166.673 451.841L166.683 451.836C168.594 450.549 170.648 449.581 172.772 448.927C176.456 447.785 180.298 447.601 183.957 448.281C187.618 448.955 191.128 450.499 194.139 452.881C195.876 454.25 197.431 455.885 198.737 457.766L198.743 457.775C199.184 458.409 199.588 459.058 199.954 459.72C219.517 453.455 248.941 444.061 272.965 436.512C280.151 434.255 286.854 432.167 292.66 430.367C292.678 429.861 292.715 429.358 292.767 428.857C292.815 428.404 292.876 427.953 292.951 427.501C283 422.102 269.882 414.968 255.351 407.022C212.115 383.376 156.358 352.613 133.659 340.079ZM404.311 342.312C392.177 356.205 367.951 383.906 348.747 405.618C344.068 410.909 339.686 415.84 335.861 420.133C336.261 420.837 336.62 421.56 336.94 422.296L336.957 422.338C337.289 423.105 337.579 423.895 337.825 424.702C341.544 424.895 345.586 425.111 349.834 425.346C372.693 426.613 401.427 428.391 417.209 429.381C417.455 428.817 417.741 428.277 418.064 427.76L418.087 427.723C418.847 426.516 419.787 425.479 420.855 424.627C415.038 391.251 409.532 359.363 406.707 342.967L406.625 342.953L406.547 342.939L406.471 342.923L406.394 342.908L406.317 342.893L406.283 342.886C405.982 342.825 405.682 342.751 405.382 342.666C405.022 342.565 404.664 342.447 404.311 342.312ZM499.706 294.507C467.036 309.208 436.86 322.743 421.43 329.66C421.448 329.864 421.461 330.068 421.468 330.271C421.489 330.771 421.478 331.276 421.436 331.78L421.427 331.874L421.417 331.968L421.41 332.043L421.402 332.12L421.393 332.195L421.383 332.271L421.373 332.346L421.364 332.422L421.352 332.498L421.341 332.574L421.33 332.649L421.317 332.725L421.304 332.801L421.292 332.877L421.277 332.952L421.263 333.028L421.249 333.103L421.234 333.18L421.218 333.255L421.211 333.288C421.147 333.584 421.074 333.88 420.988 334.174C420.677 335.24 420.217 336.275 419.608 337.246L419.564 337.317L419.522 337.383L419.479 337.448L419.437 337.512L419.395 337.577L419.351 337.641L419.344 337.652C419.287 337.736 419.229 337.819 419.17 337.901L419.125 337.965L419.078 338.027L419.03 338.091L418.987 338.147L418.942 338.208L418.896 338.269L418.848 338.329L418.801 338.39L418.753 338.45L418.703 338.51L418.647 338.579L418.604 338.631C418.397 338.878 418.18 339.117 417.956 339.346C417.475 339.837 416.949 340.294 416.381 340.708C416.069 340.936 415.749 341.147 415.42 341.343C418.787 357.142 425.238 387.451 432.021 419.56C443.338 398.728 466.468 356.204 484.787 322.868C490.568 312.346 495.876 302.744 500.159 295.019C500.006 294.85 499.855 294.68 499.706 294.507ZM210.29 271.15C206.509 274.079 202.279 277.347 197.78 280.806C177.181 296.642 151.019 316.51 137.334 326.884C137.529 327.468 137.677 328.059 137.78 328.656C137.953 329.635 138.005 330.644 137.927 331.664C137.909 331.91 137.884 332.154 137.85 332.399C161.023 344.067 217.918 372.743 261.861 395.096C275.809 402.192 288.446 408.656 298.301 413.709C293.713 404.598 287.946 393.117 281.643 380.497C263.678 344.527 241.315 299.341 228.697 273.812L228.559 273.849L228.422 273.885L228.284 273.919L228.223 273.935L228.145 273.954L228.084 273.969L228.008 273.988L227.947 274.001L227.87 274.02L227.809 274.035L227.776 274.042L227.731 274.051L227.67 274.065L227.634 274.074L227.593 274.082L227.532 274.096L227.491 274.104L227.454 274.113L227.392 274.125L227.348 274.135L227.316 274.142L227.253 274.154L227.177 274.17L227.115 274.182L227.038 274.197L226.976 274.21L226.899 274.224L226.836 274.235L226.76 274.249L226.698 274.261L226.558 274.285L226.419 274.309L226.279 274.331L226.202 274.343C225.376 274.473 224.546 274.557 223.72 274.596C220.639 274.752 217.486 274.299 214.438 273.169C213.001 272.638 211.61 271.965 210.29 271.15ZM239.675 267.162L239.633 267.208L239.581 267.265L239.537 267.311L239.485 267.368L239.441 267.414L239.387 267.47L239.345 267.515L239.321 267.539L239.289 267.571L239.247 267.616L239.22 267.643L239.192 267.672L239.148 267.717L239.118 267.746L239.093 267.773L239.049 267.817L239.017 267.849L238.994 267.873L238.949 267.916L238.894 267.971L238.848 268.014L238.792 268.07L238.748 268.113L238.69 268.169L238.646 268.212L238.588 268.266L238.543 268.309L238.44 268.405L238.337 268.501L238.232 268.597L238.171 268.652C237.794 268.993 237.402 269.322 236.998 269.64C250.646 294.655 274.782 338.949 293.901 374.339C301.032 387.539 307.456 399.502 312.407 408.742C312.86 408.678 313.314 408.627 313.766 408.589C315.222 408.467 316.67 408.484 318.09 408.63C319.282 408.749 320.471 408.962 321.648 409.27C322.557 409.508 323.445 409.798 324.304 410.138L324.369 410.164L324.39 410.172C324.615 410.263 324.84 410.356 325.063 410.453C329.058 406.311 333.648 401.568 338.575 396.5C358.798 375.701 384.622 349.432 397.574 336.273C397.458 336.044 397.348 335.809 397.246 335.569C396.973 334.937 396.758 334.289 396.599 333.633C396.405 332.835 396.295 332.029 396.264 331.227C396.25 330.878 396.251 330.53 396.267 330.178C373.218 320.972 318.276 299.004 275.736 281.801C261.9 276.206 249.382 271.108 239.688 267.149L239.675 267.162ZM53.6335 320.391C51.3804 323.953 48.183 326.787 44.4626 328.642C49.7181 346.273 57.279 371.733 63.3769 392.66C65.0449 398.386 66.6012 403.77 67.9765 408.559L68.0217 408.562L68.1037 408.567L68.1631 408.571L68.2437 408.578L68.3059 408.582L68.385 408.589L68.4472 408.595L68.525 408.602L68.59 408.607L68.7313 408.621L68.8741 408.635L69.0154 408.65L69.1582 408.667L69.301 408.684L69.4423 408.702L69.5851 408.721L69.6204 408.725C70.1194 408.794 70.6184 408.878 71.1159 408.98C73.2659 405.508 75.6364 401.695 78.1454 397.678C90.7596 377.482 106.819 352.132 115.486 338.478C115.23 338.162 114.993 337.836 114.771 337.501C114.23 336.682 113.799 335.818 113.475 334.928L113.454 334.868C113.215 334.203 113.037 333.525 112.918 332.842C112.897 332.72 112.878 332.598 112.86 332.474C99.662 329.838 77.5262 325.388 59.771 321.681C57.655 321.239 55.6026 320.807 53.6335 320.391ZM44.1036 222.76C43.9127 225.916 43.7035 229.29 43.4788 232.812C42.3706 250.153 40.9189 271.022 39.8262 286.458C49.6629 288.964 56.3955 297.378 57.0585 306.859C58.995 307.399 61.0149 307.963 63.0942 308.547C80.5003 313.44 102.11 319.687 115.04 323.442C103.127 306.648 77.8782 271.013 58.2472 243.014C53.013 235.548 48.1844 228.626 44.1036 222.76ZM471.33 233.664C471.078 234.838 470.728 236.01 470.274 237.167C466.599 246.543 457.264 252.148 447.58 251.667C446.226 254.871 444.756 258.336 443.207 261.966C434.564 282.218 423.538 307.585 417.416 321.632C417.481 321.691 417.546 321.751 417.611 321.812L417.633 321.834C432.812 314.397 462.508 299.855 494.69 284.145C493.695 279.053 494.458 273.604 497.248 268.74C503.502 257.837 517.582 253.976 528.672 260.123C530.924 261.373 532.88 262.938 534.514 264.729C542.48 260.853 550.289 257.056 557.77 253.425C571.067 246.969 583.326 241.045 593.519 236.129C587.154 236.029 580.125 235.912 572.698 235.778C538.837 235.166 496.721 234.238 471.33 233.664ZM298.628 215.327C285.674 223.181 268.366 233.643 253.902 242.276C250.845 244.101 247.916 245.841 245.184 247.459L245.187 247.471L245.202 247.546L245.214 247.607L245.229 247.684L245.24 247.745L245.255 247.82L245.266 247.881L245.291 248.019L245.315 248.155L245.338 248.292L245.351 248.369C245.482 249.18 245.568 249.995 245.608 250.809C245.659 251.771 245.646 252.74 245.568 253.71C255.158 257.908 267.53 263.339 281.176 269.368C320.865 286.905 371.332 309.432 395.84 320.384C382.456 302.589 357.611 269.504 338.025 243.171C332.134 235.251 326.723 227.939 322.231 221.851C321.713 222.001 321.192 222.133 320.667 222.246C317.774 222.872 314.709 222.959 311.614 222.408C308.556 221.865 305.748 220.752 303.284 219.198C301.592 218.136 300.021 216.842 298.628 215.327ZM168.874 182.297C150.01 186.056 111.654 193.675 81.4686 199.508C73.8002 200.989 66.6605 202.35 60.5046 203.516C60.4212 204.052 60.3181 204.585 60.1951 205.111C59.7032 207.254 58.9017 209.279 57.843 211.142L57.8076 211.203C57.2437 212.192 56.6005 213.146 55.881 214.05C59.8643 220.207 64.6123 227.57 69.7378 235.562C88.2181 264.375 111.642 301.295 122.632 318.64C122.828 318.597 123.025 318.56 123.221 318.526C124.216 318.358 125.244 318.307 126.28 318.383C126.862 318.425 127.443 318.507 128.021 318.629L128.054 318.636C128.734 318.783 129.408 318.986 130.068 319.25C130.562 319.445 131.036 319.669 131.493 319.919C144.461 308.688 169.285 287.225 189.023 270.363C193.335 266.68 197.403 263.221 201.05 260.13C200.877 259.694 200.72 259.253 200.577 258.81C200.51 258.602 200.446 258.393 200.385 258.183L200.363 258.105L200.324 257.971L200.286 257.834L200.249 257.7L200.214 257.563L200.199 257.504L200.179 257.429L200.163 257.369L200.145 257.292L200.131 257.233L200.112 257.156L200.097 257.096L200.09 257.065L200.08 257.02L200.066 256.96L200.057 256.924L200.049 256.884L200.035 256.824L200.026 256.785L200.018 256.748L200.005 256.688L199.995 256.645L199.988 256.611L199.975 256.55L199.96 256.475L199.947 256.414L199.931 256.339L199.919 256.278L199.905 256.203L199.893 256.14L199.879 256.065L199.866 256.004L199.842 255.868L199.818 255.73L199.796 255.593L199.783 255.516C199.652 254.705 199.565 253.89 199.526 253.076C199.367 250.049 199.828 246.947 200.977 243.951C201.735 241.963 202.783 240.068 204.113 238.326C204.48 237.844 204.866 237.38 205.267 236.933L205.32 236.876L205.364 236.827L205.413 236.771L205.458 236.723L205.501 236.677L205.553 236.62L205.597 236.574L205.649 236.517L205.693 236.473L205.751 236.41C205.079 235.116 204.39 233.783 203.684 232.419C196.108 217.733 186.858 199.448 181.202 188.233C180.691 188.294 180.17 188.325 179.645 188.322C178.391 188.318 177.168 188.13 176.006 187.78C174.991 187.475 174.039 187.053 173.159 186.529L173.114 186.503C172.594 186.19 172.095 185.84 171.62 185.449L171.575 185.413C170.816 184.786 170.123 184.064 169.518 183.251C169.289 182.943 169.074 182.625 168.874 182.297ZM344.031 77.4556C343.838 77.4986 343.644 77.5403 343.449 77.5792L343.394 77.5904L343.37 77.5959C343.138 77.6418 342.905 77.6849 342.67 77.7238C341.522 84.1583 340.165 91.7019 338.684 99.8264C333.922 125.929 327.913 158.025 323.983 178.913C325.459 179.468 326.851 180.164 328.149 180.981C330.616 182.531 332.822 184.569 334.606 187.072C336.412 189.604 337.617 192.376 338.25 195.222C338.889 198.067 338.977 201.08 338.417 204.123C337.864 207.131 336.73 209.891 335.152 212.314C334.882 212.729 334.599 213.136 334.301 213.535C338.588 219.762 343.733 227.256 349.297 235.404C369.053 264.334 394.129 301.439 405.795 318.722C405.84 318.71 405.887 318.699 405.934 318.689C406.745 318.497 407.563 318.389 408.379 318.358C408.503 318.353 408.628 318.35 408.751 318.348C413.801 303.896 422.944 277.814 430.362 257.099C431.692 253.386 432.967 249.848 434.15 246.577C426.643 240.545 423.549 230.23 427.224 220.854C428.498 217.608 430.448 214.815 432.857 212.569C416.902 188.44 388.477 145.401 365.951 111.031C357.492 98.124 349.873 86.4389 344.031 77.4556ZM190.454 182.387V182.389C190.171 182.843 189.857 183.283 189.512 183.702C196.193 194.359 207.068 211.757 215.723 225.855C216.528 227.165 217.313 228.447 218.074 229.692L218.157 229.677L218.234 229.661L218.297 229.65L218.374 229.636L218.436 229.625L218.574 229.6L218.714 229.577L218.853 229.554L218.932 229.542C219.757 229.413 220.586 229.328 221.414 229.289C224.493 229.133 227.648 229.586 230.695 230.716C232.717 231.462 234.645 232.492 236.416 233.8C236.906 234.161 237.378 234.539 237.834 234.934L237.892 234.986L237.941 235.029L237.997 235.077L238.047 235.122L238.094 235.163L238.113 235.181C240.931 233.711 243.956 232.137 247.12 230.498C262.09 222.747 280.12 213.537 293.632 206.66C293.46 206.097 293.31 205.528 293.183 204.958C293.063 204.422 292.961 203.88 292.88 203.332C287.191 202.207 280.666 200.907 273.685 199.498C245.021 193.717 208.67 186.179 190.454 182.387ZM463.098 50.7973C444.812 52.679 408.59 56.3799 380.024 59.14C373.184 59.8001 366.785 60.4033 361.18 60.9244C361.019 61.5512 360.83 62.1697 360.616 62.7756C360.109 64.2209 359.46 65.5926 358.688 66.8781L358.634 66.9671C358.12 67.8176 357.546 68.639 356.913 69.4269L356.906 69.4339L356.836 69.5201C356.783 69.5868 356.729 69.6521 356.674 69.7174C362.293 78.8384 369.593 90.718 377.636 103.878C399.061 138.93 425.792 183.017 440.764 207.738C445.843 205.891 451.6 205.785 457.045 207.848C464.614 210.716 469.767 217.09 471.326 224.359C496.721 223.784 538.837 222.857 572.698 222.244C584.472 222.032 595.246 221.862 603.965 221.737L603.978 221.698C604.236 220.952 604.535 220.222 604.868 219.512C605.281 218.629 605.747 217.783 606.262 216.974C598.244 207.04 587.283 193.436 575.073 178.21C540.471 135.061 495.792 78.9509 478.502 57.2235C477.957 57.4042 477.393 57.5487 476.815 57.6543C475.571 57.885 474.327 57.9267 473.115 57.7947C471.843 57.6585 470.622 57.3347 469.485 56.8511C468.041 56.2396 466.697 55.3543 465.537 54.205C464.687 53.3642 463.952 52.3969 463.366 51.3185L463.341 51.2726C463.256 51.1156 463.176 50.9571 463.098 50.7973ZM670.952 91.6422C664.734 115 654.734 152.447 646.536 182.653C643.717 193.036 641.107 202.558 638.957 210.363C639.631 210.823 640.284 211.321 640.914 211.857C641.877 212.674 642.777 213.576 643.601 214.559C644.461 215.579 645.235 216.684 645.912 217.867C646.556 218.984 647.091 220.14 647.524 221.321L647.548 221.384L647.595 221.515L647.641 221.647L647.686 221.779L647.703 221.827C649.531 221.868 651.43 221.912 653.379 221.959C671.035 222.392 692.981 223.093 706.186 223.533C706.601 222.497 707.152 221.529 707.819 220.65L707.839 220.624C708.557 219.68 709.413 218.834 710.39 218.118C703.954 197.703 689.887 152.998 679.067 118.039C676.026 108.215 673.249 99.1621 670.952 91.6422ZM568.059 36.9901C567.4 37.7878 566.689 38.5341 565.936 39.229C564.793 40.2838 563.534 41.2316 562.17 42.0488C573.235 70.5679 593.581 123.078 609.594 164.818C615.594 180.46 620.977 194.588 625.066 205.359C627.402 197.814 630.222 188.747 633.305 178.913C642.724 148.882 654.553 111.703 661.892 88.6945C656.139 85.9775 651.552 80.9411 649.678 74.4342C648.728 71.1391 648.573 67.8051 649.097 64.6323C631.16 58.5813 605.545 49.9134 584.522 42.6853C578.572 40.6396 572.993 38.7065 568.059 36.9901ZM531.153 35.5559C530.599 35.699 530.036 35.8436 529.468 35.9895C515.459 39.5959 498.167 43.8916 487.043 46.6364C487.037 46.6961 487.031 46.7559 487.024 46.8171C486.886 48.0664 486.557 49.2672 486.063 50.3859C485.857 50.8571 485.621 51.3171 485.354 51.7632C503.397 72.8902 549.987 127.477 585.766 169.687C592.491 177.622 598.831 185.12 604.53 191.868C602.086 184.931 599.429 177.366 596.644 169.409C581.879 127.227 563.461 74.0326 553.468 45.1327C552.11 45.3272 550.754 45.3995 549.414 45.3578C546.942 45.28 544.442 44.8075 541.999 43.9014C538.588 42.6339 535.661 40.6549 533.326 38.202C532.54 37.3806 531.813 36.4967 531.153 35.5559ZM326.053 74.2577C317.761 80.3768 307.082 88.24 295.278 96.8871C258.799 123.611 211.64 157.871 191.756 172.303L191.764 172.333L191.787 172.406L191.79 172.416C191.904 172.798 191.999 173.182 192.075 173.568C210.488 176.285 247.224 181.733 276.133 186.18C283.174 187.264 289.748 188.291 295.48 189.195C295.733 188.741 296 188.298 296.281 187.866C297.856 185.441 299.931 183.271 302.475 181.518C305.052 179.743 307.871 178.557 310.766 177.935C311.966 177.675 313.194 177.508 314.442 177.44C317.21 156.374 321.487 124.01 325.085 97.7293C326.204 89.5478 327.263 81.9584 328.173 75.4877C327.808 75.3 327.449 75.1041 327.096 74.8998L327.007 74.847C326.685 74.6594 326.367 74.462 326.053 74.2577Z" fill="white" fill-opacity="0.25"/>
</svg>
